<svg xmlns="http://www.w3.org/2000/svg" width="190" height="74" viewBox="0 0 190 74"><path fill="#1C456E" d="M62.53 60.14a3.34 3.34 0 0 0-2.39-.95c-.78 0-1.5.3-2.15.89-.65.59-.97 1.5-.97 2.72 0 1 .24 1.87.73 2.62.48.75 1.33 1.12 2.55 1.12a2.9 2.9 0 0 0 2.35-1.05c.58-.7.88-1.5.88-2.36v-.33a3.5 3.5 0 0 0-1-2.66zm-5.5-.8a18.33 18.33 0 0 1 .73-.67 4.65 4.65 0 0 1 3.22-1.2h.24c.08.02.17.02.26.02a4.6 4.6 0 0 1 2.85 1.6c.85.94 1.28 2.28 1.28 4.04a4.84 4.84 0 0 1-4.79 5.08c-.78 0-1.5-.14-2.15-.42a3.03 3.03 0 0 1-1.49-1.44v7.39h-2.02V57.82h1.86v1.53zm64.87-1.69V67.9h-2.08v-1.7c-.34.5-.77.95-1.28 1.31-.51.37-1.28.54-2.3.54a4.67 4.67 0 0 1-3.5-1.35c-.88-.9-1.31-2.2-1.31-3.9 0-1.73.5-3.07 1.49-4.04a4.66 4.66 0 0 1 4.09-1.38 4.63 4.63 0 0 1 1.94.8c.35.26.63.6.87 1.02v-1.54h2.08zm-2.77 2.6c-.47-.71-1.26-1.06-2.37-1.06a3.2 3.2 0 0 0-2.42.89c-.58.59-.86 1.5-.86 2.72 0 1 .29 1.84.87 2.53a2.63 2.63 0 0 0 2.05 1.02c1.12 0 1.97-.32 2.55-.97.58-.64.87-1.56.87-2.75 0-.87-.23-1.67-.7-2.38zm13.93-6.23h1.89v3.8h2.08v1.86h-2.08v8.2h-1.89v-8.2h-1.93v-1.86h1.93v-3.8zm13.76 13.87v-8.6h2.05v8.6h-2.05zm35.94-10.07v1.37l.59-.58.5-.44c.28-.2.57-.35.9-.46.31-.1.75-.2 1.3-.25a4.08 4.08 0 0 1 1 .14c.64.14 1.23.49 1.76 1.02.52.54.79 1.35.79 2.42v6.85h-2.05v-6.85c0-.5-.19-.92-.56-1.24a2.44 2.44 0 0 0-3.31.05c-.5.45-.76 1.19-.76 2.2v5.84h-2.05V57.82h1.89zM6.09 66.18c1.39 0 2.57-.82 3.11-2h2.2a5.48 5.48 0 1 1-.01-2.86h-2.2a3.43 3.43 0 1 0-3.1 4.86zm142.94-9.36a1.2 1.2 0 1 1-2.42 0 1.2 1.2 0 0 1 2.42 0zM46.02 58a1.06 1.06 0 1 1-1 1.85v.02a2.39 2.39 0 0 0-.83-.38 1.86 1.86 0 0 0-.26-.04 2 2 0 0 0-1.67.6c-.42.4-.66 1.02-.7 1.85v5.99h-2.05V57.82h2.06v1.53c.38-.6.8-1.04 1.28-1.3a3.02 3.02 0 0 1 1.96-.37l.53.08.34.11.34.11V58zm56.5 0a1.05 1.05 0 1 1-1 1.85l-.01.02a2.38 2.38 0 0 0-1.08-.42 2 2 0 0 0-1.67.6c-.43.4-.66 1.02-.7 1.85v5.99H96V57.82h2.06v1.53c.38-.6.81-1.04 1.29-1.3a3 3 0 0 1 1.95-.37l.53.08a39.79 39.79 0 0 0 .69.22V58zm-78.45-.73a5.5 5.5 0 1 1 0 10.98 5.5 5.5 0 0 1 0-10.98zm0 8.91a3.43 3.43 0 1 0 0-6.85 3.43 3.43 0 0 0 0 6.85zm56.36-8.91a5.5 5.5 0 1 1 0 10.98 5.5 5.5 0 0 1 0-10.98zm0 8.91a3.43 3.43 0 1 0 0-6.85 3.43 3.43 0 0 0 0 6.85zm84.98-8.91a5.49 5.49 0 1 1 0 10.97 5.49 5.49 0 0 1 0-10.97zm0 8.91a3.43 3.43 0 1 0 0-6.85 3.43 3.43 0 0 0 0 6.85zM17.67 29.85c-4.4 8.39-6.77 14.7-8.05 18.89H.9c1.24-4.65 3.85-12.29 9.34-22.78a159.75 159.75 0 0 1 11.74-19.2A97.8 97.8 0 0 1 27.25 0a97.88 97.88 0 0 1 5.28 6.76 160.74 160.74 0 0 1 11.74 19.2c5.5 10.49 8.1 18.13 9.34 22.78h-8.72c-1.27-4.18-3.66-10.5-8.05-18.89a154.78 154.78 0 0 0-9.59-16c-2.76 4.03-6.1 9.36-9.58 16zM95 47.98H84.85s-2.28-4.75-6.82-10.66C73.5 31.42 67.96 25.4 67.96 25.4c14.37.03 18.35-1.94 17.8-9.66-.38-5.15-6.47-7.1-10.59-7.1-5.94 0-9.55-.04-9.55-.04v39.38h-8.3V1.56h18.46c11.34.37 18.28 5.77 18.28 14.94 0 9.49-5.57 12.32-10.46 14.77 0 0 3.05 3.3 6.1 7.81 3.05 4.5 5.31 8.9 5.31 8.9zm63.86-45.66v18.6h22.83V2.32h7.6v46.42h-7.6v-20.8h-22.83v20.8h-7.6V2.32h7.6zm-37.12 39.9a16.9 16.9 0 0 0 15.77-10.82h8.2a24.72 24.72 0 1 1-.14-12.64h-8.26a16.9 16.9 0 1 0-15.57 23.46z"></path></svg>
