<svg xmlns="http://www.w3.org/2000/svg" width="289" height="24" viewBox="0 0 289 24"><path fill="#FFFFFF" d="M13.69 16.39H5.84l-.93 2.16a4.8 4.8 0 0 0-.46 1.78c0 .63.25 1.08.76 1.38.3.17 1.02.3 2.17.4v.6H0v-.6a3.3 3.3 0 0 0 1.96-1c.52-.54 1.15-1.66 1.9-3.35L11.8.05h.31l8.01 18.2c.76 1.73 1.4 2.81 1.88 3.26.37.34.9.54 1.57.6v.6H12.84v-.6h.44c.86 0 1.47-.13 1.81-.37a.87.87 0 0 0 .36-.75 2 2 0 0 0-.1-.6c-.02-.1-.18-.52-.48-1.24l-1.18-2.76zm-.56-1.21l-3.3-7.65-3.41 7.65h6.71zm17.67-.26v4.79c0 .92.06 1.5.17 1.74.12.24.31.43.6.58.29.14.82.21 1.6.21v.47h-8.74v-.47c.79 0 1.32-.07 1.6-.22.29-.15.48-.34.6-.57.11-.24.17-.82.17-1.74V8.63c0-.93-.06-1.5-.17-1.75a1.24 1.24 0 0 0-.6-.57 4.03 4.03 0 0 0-1.6-.21v-.47h7.93c2.07 0 3.58.14 4.54.43.95.28 1.74.81 2.34 1.58.6.77.9 1.67.9 2.7 0 1.26-.45 2.3-1.35 3.12-.58.52-1.4.91-2.43 1.17l4.1 5.79c.54.74.92 1.2 1.15 1.4.34.25.74.4 1.2.42v.47h-5.38l-5.5-7.79H30.8zm0-8.37v7.48h.72c1.17 0 2.04-.1 2.62-.32a2.6 2.6 0 0 0 1.37-1.16c.33-.56.5-1.29.5-2.18 0-1.3-.31-2.27-.92-2.89-.6-.62-1.59-.93-2.94-.93H30.8zm29-1.31v5.92h-.5a6.3 6.3 0 0 0-2.06-3.55 5.27 5.27 0 0 0-8.32 2.09c-.52 1.27-.79 2.68-.79 4.23 0 1.53.2 2.92.58 4.17.39 1.26 1 2.2 1.81 2.85.83.64 1.9.96 3.2.96 1.08 0 2.06-.23 2.96-.7.89-.47 1.83-1.28 2.82-2.43v1.47a9.33 9.33 0 0 1-2.99 2.17 9.08 9.08 0 0 1-3.63.68c-1.82 0-3.44-.37-4.86-1.1a7.74 7.74 0 0 1-3.27-3.15 8.79 8.79 0 0 1-1.15-4.37c0-1.63.42-3.17 1.28-4.63a9.35 9.35 0 0 1 8.07-4.6c1.2-.01 2.46.25 3.8.77.77.3 1.26.45 1.47.45.27 0 .5-.1.7-.3.2-.19.32-.5.38-.93h.5zm8.45 9.26v5.29c0 .87.05 1.41.15 1.63.1.22.29.41.57.58.28.16.66.24 1.14.24h.56v.47h-8.93v-.47h.57c.5 0 .9-.09 1.2-.26.22-.12.38-.32.5-.6.1-.2.14-.74.14-1.6V8.56c0-.87-.05-1.42-.14-1.63-.1-.22-.28-.41-.56-.58a2.26 2.26 0 0 0-1.14-.24h-.57v-.47h8.93v.47h-.56c-.5 0-.9.08-1.2.26a1.2 1.2 0 0 0-.52.6c-.09.2-.14.74-.14 1.6v4.83h6.04V8.55c0-.87-.05-1.42-.14-1.63-.1-.22-.28-.41-.57-.58a2.3 2.3 0 0 0-1.14-.24h-.56v-.47h8.92v.47h-.56c-.5 0-.9.08-1.2.26a1.2 1.2 0 0 0-.5.6c-.1.2-.15.74-.15 1.6v11.23c0 .87.05 1.41.14 1.63.1.22.28.41.57.58.28.16.67.24 1.14.24h.56v.47h-8.92v-.47h.56c.5 0 .9-.09 1.2-.26.21-.12.38-.32.5-.6.1-.2.15-.74.15-1.6V14.5h-6.04zM110.1 0v7.7h-.64a8.2 8.2 0 0 0-2.68-4.62 6.85 6.85 0 0 0-8.27-.41c-1.16.8-2 1.84-2.54 3.13a14.15 14.15 0 0 0-1.03 5.5c0 1.98.25 3.8.75 5.42a7.22 7.22 0 0 0 2.36 3.7 6.56 6.56 0 0 0 4.16 1.26c1.4 0 2.68-.31 3.84-.92a13.27 13.27 0 0 0 3.67-3.16v1.91a12.13 12.13 0 0 1-3.88 2.83 11.8 11.8 0 0 1-4.73.87c-2.37 0-4.47-.47-6.3-1.42a10.07 10.07 0 0 1-4.26-4.1c-1-1.77-1.5-3.67-1.5-5.67 0-2.12.55-4.13 1.66-6.03a12.15 12.15 0 0 1 10.49-6c1.56.01 3.2.35 4.94 1.03 1 .39 1.64.58 1.91.58.35 0 .66-.12.91-.38.26-.26.43-.66.5-1.22h.64zm11.8 5.4c2.72-.11 4.93.68 6.63 2.37a8.56 8.56 0 0 1 2.55 6.34 9.1 9.1 0 0 1-1.9 5.71c-1.68 2.19-4.06 3.28-7.12 3.28-3.07 0-5.45-1.04-7.13-3.13a9.04 9.04 0 0 1-1.99-5.85c0-2.54.86-4.65 2.59-6.34a8.24 8.24 0 0 1 6.37-2.39zm.15.8c-1.56 0-2.75.8-3.57 2.39-.66 1.31-1 3.19-1 5.64 0 2.92.52 5.07 1.54 6.46a3.5 3.5 0 0 0 3 1.46 3.6 3.6 0 0 0 2.17-.63 5.17 5.17 0 0 0 1.72-2.57c.41-1.18.62-2.72.62-4.62 0-2.26-.2-3.95-.63-5.07a4.93 4.93 0 0 0-1.6-2.37c-.66-.46-1.4-.7-2.25-.7zm16.8 8.72v4.79c0 .92.05 1.5.17 1.74.11.24.31.43.6.58.28.14.81.21 1.6.21v.47h-8.75v-.47c.8 0 1.33-.07 1.61-.22s.48-.34.6-.57c.1-.24.16-.82.16-1.74V8.63c0-.93-.05-1.5-.17-1.75a1.24 1.24 0 0 0-.6-.57 4.03 4.03 0 0 0-1.6-.21v-.47h7.94c2.06 0 3.57.14 4.53.43.96.28 1.74.81 2.34 1.58.6.77.91 1.67.91 2.7 0 1.26-.45 2.3-1.36 3.12-.58.52-1.39.91-2.43 1.17l4.1 5.79c.54.74.93 1.2 1.15 1.4.35.25.74.4 1.2.42v.47h-5.38l-5.5-7.79h-1.12zm0-8.37v7.48h.71c1.17 0 2.04-.1 2.62-.32a2.6 2.6 0 0 0 1.37-1.16c.33-.56.5-1.29.5-2.18 0-1.3-.3-2.27-.92-2.89-.6-.62-1.58-.93-2.94-.93h-1.34zm18.74 8.42v4.74c0 .92.05 1.5.17 1.74.1.24.31.43.6.58.29.14.82.21 1.6.21v.47h-8.68v-.47c.79 0 1.32-.07 1.6-.22s.48-.34.6-.57c.1-.24.16-.82.16-1.74V8.63c0-.93-.05-1.5-.17-1.75a1.24 1.24 0 0 0-.6-.57 4.03 4.03 0 0 0-1.6-.21v-.47h7.45c2.45 0 4.2.44 5.28 1.31a4.06 4.06 0 0 1 1.6 3.27c0 1.11-.35 2.06-1.04 2.85a5.25 5.25 0 0 1-2.84 1.61c-.82.2-2.2.3-4.13.3zm0-8.36V14l.63.03c1.02 0 1.8-.3 2.36-.92.56-.6.83-1.55.83-2.82 0-1.27-.27-2.2-.83-2.79-.55-.58-1.38-.88-2.48-.88h-.51zm18.75-1.22c2.72-.1 4.93.7 6.63 2.38a8.56 8.56 0 0 1 2.55 6.34 9.1 9.1 0 0 1-1.9 5.71c-1.68 2.19-4.05 3.28-7.12 3.28-3.07 0-5.45-1.04-7.13-3.13a9.04 9.04 0 0 1-1.99-5.85c0-2.54.87-4.65 2.6-6.34a8.24 8.24 0 0 1 6.36-2.39zm.15.8c-1.56 0-2.75.8-3.57 2.4-.66 1.31-.99 3.19-.99 5.64 0 2.92.51 5.07 1.54 6.46a3.5 3.5 0 0 0 3 1.46 3.6 3.6 0 0 0 2.16-.63 5.17 5.17 0 0 0 1.72-2.57c.42-1.18.62-2.72.62-4.62 0-2.26-.2-3.95-.63-5.07a4.93 4.93 0 0 0-1.6-2.37c-.65-.46-1.4-.7-2.25-.7zm16.8 8.73v4.79c0 .92.05 1.5.17 1.74.11.24.31.43.6.58.28.14.81.21 1.6.21v.47h-8.74v-.47c.78 0 1.32-.07 1.6-.22s.48-.34.6-.57c.1-.24.16-.82.16-1.74V8.63c0-.93-.05-1.5-.17-1.75a1.24 1.24 0 0 0-.6-.57 4.03 4.03 0 0 0-1.6-.21v-.47h7.94c2.06 0 3.58.14 4.53.43.96.28 1.74.81 2.35 1.58.6.77.9 1.67.9 2.7 0 1.26-.45 2.3-1.36 3.12-.58.52-1.39.91-2.43 1.17l4.1 5.79c.54.74.93 1.2 1.15 1.4.35.25.75.4 1.2.42v.47h-5.38l-5.5-7.79h-1.12zm0-8.37v7.48h.72c1.16 0 2.04-.1 2.62-.32a2.6 2.6 0 0 0 1.36-1.16c.33-.56.5-1.29.5-2.18 0-1.3-.3-2.27-.91-2.89-.61-.62-1.6-.93-2.94-.93h-1.35zm22.5 11.3h-6.03l-.72 1.66a3.7 3.7 0 0 0-.35 1.37c0 .48.2.83.58 1.06.23.13.78.23 1.67.3v.47h-5.68v-.47c.62-.1 1.12-.35 1.52-.76.39-.42.88-1.27 1.46-2.58l6.1-13.62h.24l6.16 14a8.53 8.53 0 0 0 1.45 2.5c.29.27.69.42 1.2.46v.47h-8.25v-.47h.34c.66 0 1.13-.1 1.4-.28a.67.67 0 0 0 .27-.58c0-.15-.02-.3-.07-.46-.02-.08-.15-.4-.38-.95l-.9-2.12zm-.43-.94l-2.54-5.88-2.62 5.88h5.16zm24.6-11.28v4.62h-.45a7.3 7.3 0 0 0-.9-2.3 3.44 3.44 0 0 0-1.35-1.11 4.31 4.31 0 0 0-1.67-.23h-1.27V19.8c0 .87.05 1.41.14 1.63.1.22.29.41.57.58.28.16.66.24 1.15.24h.57v.47h-8.94v-.47h.56c.5 0 .9-.09 1.2-.26.22-.12.39-.32.52-.6.09-.2.13-.74.13-1.6V6.62h-1.23c-1.15 0-1.99.25-2.5.73a4.83 4.83 0 0 0-1.4 2.91h-.47V5.63h15.34zm10.38 16.61v.47h-8.93v-.47h.56c.5 0 .9-.09 1.2-.26.22-.12.39-.32.5-.6.1-.2.14-.74.14-1.6V8.56c0-.87-.04-1.42-.14-1.63-.09-.22-.28-.41-.56-.58a2.26 2.26 0 0 0-1.14-.24h-.56v-.47h8.93v.47h-.57c-.5 0-.9.08-1.2.26a1.2 1.2 0 0 0-.51.6c-.1.2-.14.74-.14 1.6v11.23c0 .87.05 1.41.14 1.63.1.22.29.41.57.58.28.16.66.24 1.14.24h.57zM260.88 5.4c2.72-.1 4.93.7 6.63 2.38a8.56 8.56 0 0 1 2.55 6.34 9.1 9.1 0 0 1-1.9 5.71c-1.68 2.19-4.05 3.28-7.12 3.28-3.07 0-5.45-1.04-7.13-3.13a9.04 9.04 0 0 1-1.98-5.85c0-2.54.86-4.65 2.58-6.34a8.24 8.24 0 0 1 6.37-2.39zm.15.8c-1.56 0-2.75.8-3.56 2.4-.67 1.31-1 3.19-1 5.64 0 2.92.51 5.07 1.54 6.46a3.5 3.5 0 0 0 3 1.46 3.6 3.6 0 0 0 2.16-.63 5.17 5.17 0 0 0 1.73-2.57c.4-1.18.61-2.72.61-4.62 0-2.26-.2-3.95-.63-5.07a4.93 4.93 0 0 0-1.6-2.37c-.65-.46-1.4-.7-2.25-.7zm16.37-.56l8.43 10.6V8.87c0-1.02-.15-1.72-.44-2.08-.4-.49-1.08-.72-2.03-.7v-.47H289v.47c-.72.09-1.2.2-1.45.36-.25.14-.45.38-.58.71-.14.33-.21.9-.21 1.71V23.1h-.43L274.78 8.88v10.86c0 .98.23 1.64.68 1.98.45.35.96.52 1.54.52h.4v.47h-6.06v-.47c.94 0 1.6-.2 1.97-.58.37-.38.55-1.02.55-1.92V7.68l-.36-.45a3.32 3.32 0 0 0-.96-.9 2.88 2.88 0 0 0-1.2-.23v-.47h6.06z"></path></svg>