<svg xmlns="http://www.w3.org/2000/svg" width="126" height="50" viewBox="0 0 126 50"><path fill="#FFFFFF" d="M41.29 40.1a2.23 2.23 0 0 0-1.6-.64c-.52 0-1 .2-1.43.59-.43.4-.65 1-.65 1.81 0 .67.16 1.26.49 1.76.32.5.89.74 1.7.74.65 0 1.17-.23 1.56-.7.4-.47.6-1 .6-1.58v-.22c0-.75-.23-1.34-.67-1.77zm-3.68-.53a12.22 12.22 0 0 1 .5-.46 3.1 3.1 0 0 1 2.15-.8h.15l.18.02c.69.08 1.32.44 1.9 1.06.56.63.85 1.52.85 2.7a3.22 3.22 0 0 1-3.2 3.38c-.51 0-1-.09-1.42-.28-.43-.19-.76-.5-1-.96v4.93h-1.35V38.55h1.24v1.02zm43.26-1.14v6.83h-1.39v-1.14c-.23.34-.51.64-.86.88-.33.24-.85.36-1.53.36-.97 0-1.75-.3-2.33-.9-.58-.6-.88-1.47-.88-2.6a3.6 3.6 0 0 1 1-2.7 3.1 3.1 0 0 1 2.72-.92 3.09 3.09 0 0 1 1.3.54c.23.17.42.4.58.68v-1.03h1.39zm-1.85 1.74c-.31-.48-.84-.71-1.58-.71-.7 0-1.23.2-1.61.59-.39.4-.58 1-.58 1.81 0 .67.2 1.23.58 1.69.4.46.85.68 1.37.68.74 0 1.31-.21 1.7-.64.39-.43.58-1.05.58-1.84 0-.58-.15-1.1-.46-1.58zM88.3 36h1.25v2.54h1.4v1.23h-1.4v5.48h-1.25v-5.48H87v-1.23h1.3V36zm9.17 9.25v-5.73h1.37v5.73h-1.37zm23.96-6.71v.9l.39-.38.34-.29c.18-.13.38-.23.6-.3.2-.08.5-.14.86-.17a2.72 2.72 0 0 1 .67.1c.43.09.82.31 1.17.67.35.36.53.9.53 1.62v4.56h-1.37V40.7c0-.34-.12-.62-.37-.83a1.63 1.63 0 0 0-2.2.03c-.34.3-.51.8-.51 1.47v3.89h-1.37v-6.71h1.26zM3.66 44.12c.93 0 1.71-.55 2.08-1.34h1.45a3.66 3.66 0 1 1 0-1.9H5.73a2.29 2.29 0 1 0-2.07 3.24zm95.3-6.24a.8.8 0 1 1-1.62 0 .8.8 0 0 1 1.61 0zm-68.68.78a.7.7 0 1 1-.66 1.24l-.01.01a1.59 1.59 0 0 0-.55-.25 1.24 1.24 0 0 0-.17-.03l-.17-.01c-.35 0-.66.14-.94.41-.29.27-.44.68-.47 1.23v4h-1.37v-6.71h1.37v1.01c.26-.4.54-.68.86-.86a2.02 2.02 0 0 1 1.3-.25l.36.06.22.07.23.07v.01zm37.66 0a.7.7 0 1 1-.66 1.24v.01a1.59 1.59 0 0 0-.73-.28l-.17-.01c-.34 0-.66.14-.94.41-.29.27-.44.68-.47 1.23v4H63.6v-6.71h1.37v1.01c.26-.4.54-.68.86-.86a2 2 0 0 1 1.3-.25l.36.06a26.53 26.53 0 0 0 .45.14v.01zm-52.3-.48a3.66 3.66 0 1 1 0 7.32 3.66 3.66 0 0 1 0-7.32zm0 5.94a2.29 2.29 0 1 0 0-4.57 2.29 2.29 0 0 0 0 4.57zm37.58-5.94a3.66 3.66 0 1 1 0 7.32 3.66 3.66 0 0 1 0-7.32zm0 5.94a2.29 2.29 0 1 0 0-4.57 2.29 2.29 0 0 0 0 4.57zm56.66-5.94a3.66 3.66 0 1 1 0 7.31 3.66 3.66 0 0 1 0-7.31zm0 5.94a2.28 2.28 0 1 0 0-4.57 2.28 2.28 0 0 0 0 4.57zM11.38 19.9A74.46 74.46 0 0 0 6 32.5H.21c.81-3.1 2.55-8.2 6.22-15.2a106.5 106.5 0 0 1 7.82-12.8A65.2 65.2 0 0 1 17.77 0c.7.82 1.95 2.32 3.52 4.5 2.14 2.99 4.91 7.25 7.82 12.8 3.67 7 5.4 12.1 6.23 15.2h-5.81a74.5 74.5 0 0 0-5.37-12.6 103.18 103.18 0 0 0-6.39-10.67 104.76 104.76 0 0 0-6.4 10.67zm51.56 12.08h-6.77s-1.52-3.16-4.55-7.1c-3.03-3.93-6.71-7.95-6.71-7.95 9.58.02 12.23-1.3 11.86-6.44-.25-3.43-4.3-4.73-7.05-4.73-3.97 0-6.38-.03-6.38-.03v26.25h-5.53V1.04h12.3c7.57.25 12.2 3.84 12.2 9.96 0 6.32-3.71 8.21-6.97 9.84 0 0 2.03 2.21 4.06 5.21s3.54 5.93 3.54 5.93zm42.58-30.43v12.4h15.21V1.55h5.07v30.94h-5.07V18.62h-15.21V32.5h-5.07V1.55h5.07zm-24.75 26.6c4.8 0 8.88-3 10.5-7.22h5.47a16.48 16.48 0 1 1-.09-8.43h-5.5a11.26 11.26 0 1 0-10.38 15.65z"></path></svg>
