<svg xmlns="http://www.w3.org/2000/svg" width="189" height="74" viewBox="0 0 189 74"><path fill="#1C456E" d="M61.93 60.36a3.33 3.33 0 0 0-2.39-.96c-.79 0-1.5.3-2.15.89-.65.6-.97 1.5-.97 2.73 0 1 .24 1.88.73 2.64.48.75 1.33 1.12 2.55 1.12a2.9 2.9 0 0 0 2.34-1.06c.6-.7.9-1.5.9-2.37v-.33c0-1.14-.34-2.02-1-2.66zm-5.5-.8a18.35 18.35 0 0 1 .73-.69 4.64 4.64 0 0 1 3.22-1.2l.24.01.26.02c1.04.12 1.99.66 2.84 1.6.86.94 1.29 2.3 1.29 4.05a4.86 4.86 0 0 1-4.79 5.1c-.78 0-1.5-.13-2.15-.42a3.04 3.04 0 0 1-1.49-1.44V74h-2.02V58.02h1.86v1.54zm64.87-1.7v10.27h-2.08v-1.7c-.35.5-.77.95-1.28 1.31-.51.37-1.28.55-2.3.55a4.66 4.66 0 0 1-3.5-1.36c-.88-.9-1.31-2.2-1.31-3.91 0-1.74.5-3.1 1.49-4.06a4.65 4.65 0 0 1 4.09-1.39 4.62 4.62 0 0 1 1.94.8c.35.27.63.6.87 1.03v-1.54h2.08zm-2.78 2.6c-.46-.71-1.25-1.06-2.36-1.06a3.2 3.2 0 0 0-2.42.89c-.58.6-.86 1.5-.86 2.73 0 1 .29 1.85.87 2.54a2.63 2.63 0 0 0 2.05 1.03c1.12 0 1.96-.33 2.55-.98a4 4 0 0 0 .87-2.76 4.3 4.3 0 0 0-.7-2.39zm13.94-6.25h1.89v3.81h2.08v1.87h-2.08v8.24h-1.89v-8.24h-1.94v-1.87h1.94v-3.81zm13.76 13.92V59.5h2.05v8.63h-2.05zm35.94-10.1v1.37l.59-.58a3.35 3.35 0 0 1 1.4-.9c.31-.11.75-.2 1.3-.26a4.06 4.06 0 0 1 1 .15c.64.14 1.23.48 1.76 1.02.52.54.79 1.35.79 2.43v6.87h-2.05v-6.87c0-.5-.19-.93-.56-1.25a2.43 2.43 0 0 0-3.31.06c-.5.45-.76 1.18-.76 2.2v5.86h-2.05v-10.1h1.89zM5.49 66.41c1.39 0 2.57-.83 3.11-2.02h2.2A5.49 5.49 0 0 1 0 62.98a5.49 5.49 0 1 1 10.79-1.45h-2.2a3.43 3.43 0 0 0-3.1-2 3.43 3.43 0 0 0 0 6.89zm142.94-9.4c0 .68-.54 1.22-1.2 1.22a1.2 1.2 0 0 1-1.22-1.21 1.2 1.2 0 1 1 2.42 0zM45.41 58.2a1.06 1.06 0 0 1-.47 2c-.19 0-.36-.05-.52-.13v.01a2.38 2.38 0 0 0-.83-.38 1.85 1.85 0 0 0-.26-.04 2 2 0 0 0-1.67.6c-.42.41-.66 1.03-.7 1.85v6.02h-2.05v-10.1h2.06v1.53c.38-.6.8-1.04 1.28-1.3a3.02 3.02 0 0 1 1.96-.37c.17.01.35.04.53.08l.34.1.34.12v.01zm56.5 0a1.06 1.06 0 1 1-1 1.87v.01a2.38 2.38 0 0 0-1.08-.42 2 2 0 0 0-1.67.6c-.43.41-.66 1.03-.7 1.85v6.02H95.4v-10.1h2.06v1.53c.38-.6.81-1.04 1.29-1.3a2.99 2.99 0 0 1 1.95-.37c.17.01.35.04.53.08a39.69 39.69 0 0 0 .69.22v.01zm-78.44-.73a5.5 5.5 0 1 1-.02 11 5.5 5.5 0 0 1 .02-11zm0 8.95a3.43 3.43 0 1 0-.02-6.87 3.43 3.43 0 0 0 .02 6.87zm56.36-8.95a5.5 5.5 0 1 1-.02 11 5.5 5.5 0 0 1 .02-11zm0 8.95a3.43 3.43 0 1 0-.01-6.87 3.43 3.43 0 0 0 0 6.87zm84.98-8.95a5.5 5.5 0 1 1-5.5 5.51 5.5 5.5 0 0 1 5.5-5.51zm0 8.95a3.43 3.43 0 1 0 0-6.87 3.43 3.43 0 0 0 0 6.87zM17.07 29.96c-4.4 8.41-6.77 14.76-8.05 18.95H.3c1.24-4.66 3.85-12.33 9.34-22.86A160.42 160.42 0 0 1 21.38 6.8 98.1 98.1 0 0 1 26.65 0a98.18 98.18 0 0 1 5.28 6.79c3.22 4.48 7.37 10.9 11.74 19.26 5.5 10.53 8.1 18.2 9.34 22.86h-8.72c-1.27-4.2-3.66-10.54-8.05-18.95a155.44 155.44 0 0 0-9.59-16.06c-2.76 4.04-6.1 9.39-9.58 16.06zM94.4 48.15H84.25s-2.28-4.77-6.82-10.7C72.88 31.55 67.36 25.5 67.36 25.5c14.37.03 18.35-1.95 17.8-9.7-.38-5.16-6.47-7.12-10.59-7.12-5.94 0-9.55-.04-9.55-.04v39.52h-8.3V1.56h18.46c11.34.38 18.28 5.8 18.28 15 0 9.52-5.57 12.36-10.46 14.82 0 0 3.05 3.32 6.1 7.84s5.31 8.93 5.31 8.93zm63.86-45.82v18.66h22.83V2.33h7.6V48.9h-7.6V28.04h-22.83V48.9h-7.6V2.33h7.6zm-37.12 40.04a16.9 16.9 0 0 0 15.77-10.86h8.2a24.74 24.74 0 0 1-23.97 18.71 24.76 24.76 0 0 1-24.7-24.8c0-13.7 11.05-24.8 24.7-24.8 11.37 0 20.95 7.7 23.83 18.2h-8.26a16.9 16.9 0 0 0-32.46 6.6c0 9.36 7.56 16.95 16.9 16.95z"/></svg>
